{
 "cells": [
  {
   "cell_type": "markdown",
   "metadata": {},
   "source": [
    "# Script to convert .avi to .mp4 lowers the birate and resizes it to 1024x1024 (adds black bars)"
   ]
  },
  {
   "cell_type": "code",
   "execution_count": 3,
   "metadata": {},
   "outputs": [
    {
     "name": "stdout",
     "output_type": "stream",
     "text": [
      "Processing: /Volumes/T7/Dataset_paper/Vacuum_pump/01/Full_recordings/01_run1_cam_2.avi → /Users/georgye/Documents/repos/ethz/dslab25/training/videos/01_run1_cam_2_1024x1024_15fps_3mbps.mp4\n"
     ]
    },
    {
     "name": "stderr",
     "output_type": "stream",
     "text": [
      "ffmpeg version 7.1 Copyright (c) 2000-2024 the FFmpeg developers\n",
      "  built with Apple clang version 16.0.0 (clang-1600.0.26.4)\n",
      "  configuration: --prefix=/opt/homebrew/Cellar/ffmpeg/7.1_4 --enable-shared --enable-pthreads --enable-version3 --cc=clang --host-cflags= --host-ldflags='-Wl,-ld_classic' --enable-ffplay --enable-gnutls --enable-gpl --enable-libaom --enable-libaribb24 --enable-libbluray --enable-libdav1d --enable-libharfbuzz --enable-libjxl --enable-libmp3lame --enable-libopus --enable-librav1e --enable-librist --enable-librubberband --enable-libsnappy --enable-libsrt --enable-libssh --enable-libsvtav1 --enable-libtesseract --enable-libtheora --enable-libvidstab --enable-libvmaf --enable-libvorbis --enable-libvpx --enable-libwebp --enable-libx264 --enable-libx265 --enable-libxml2 --enable-libxvid --enable-lzma --enable-libfontconfig --enable-libfreetype --enable-frei0r --enable-libass --enable-libopencore-amrnb --enable-libopencore-amrwb --enable-libopenjpeg --enable-libspeex --enable-libsoxr --enable-libzmq --enable-libzimg --disable-libjack --disable-indev=jack --enable-videotoolbox --enable-audiotoolbox --enable-neon\n",
      "  libavutil      59. 39.100 / 59. 39.100\n",
      "  libavcodec     61. 19.100 / 61. 19.100\n",
      "  libavformat    61.  7.100 / 61.  7.100\n",
      "  libavdevice    61.  3.100 / 61.  3.100\n",
      "  libavfilter    10.  4.100 / 10.  4.100\n",
      "  libswscale      8.  3.100 /  8.  3.100\n",
      "  libswresample   5.  3.100 /  5.  3.100\n",
      "  libpostproc    58.  3.100 / 58.  3.100\n",
      "Input #0, avi, from '/Volumes/T7/Dataset_paper/Vacuum_pump/01/Full_recordings/01_run1_cam_2.avi':\n",
      "  Metadata:\n",
      "    software        : Lavf59.27.100\n",
      "  Duration: 00:02:03.63, start: 0.000000, bitrate: 25682 kb/s\n",
      "  Stream #0:0: Video: mjpeg (Baseline) (MJPG / 0x47504A4D), yuvj420p(pc, bt470bg/unknown/unknown), 1600x1200, 25681 kb/s, 30 fps, 30 tbr, 30 tbn\n",
      "Stream mapping:\n",
      "  Stream #0:0 -> #0:0 (mjpeg (native) -> h264 (libx264))\n",
      "Press [q] to stop, [?] for help\n",
      "[swscaler @ 0x130328000] deprecated pixel format used, make sure you did set range correctly\n",
      "[libx264 @ 0x149922f10] using cpu capabilities: ARMv8 NEON\n",
      "[libx264 @ 0x149922f10] profile High, level 3.2, 4:2:0, 8-bit\n",
      "[libx264 @ 0x149922f10] 264 - core 164 r3108 31e19f9 - H.264/MPEG-4 AVC codec - Copyleft 2003-2023 - http://www.videolan.org/x264.html - options: cabac=1 ref=5 deblock=1:0:0 analyse=0x3:0x113 me=hex subme=8 psy=1 psy_rd=1.00:0.00 mixed_ref=1 me_range=16 chroma_me=1 trellis=2 8x8dct=1 cqm=0 deadzone=21,11 fast_pskip=1 chroma_qp_offset=-2 threads=15 lookahead_threads=2 sliced_threads=0 nr=0 decimate=1 interlaced=0 bluray_compat=0 constrained_intra=0 bframes=3 b_pyramid=2 b_adapt=1 b_bias=0 direct=3 weightb=1 open_gop=0 weightp=2 keyint=250 keyint_min=15 scenecut=40 intra_refresh=0 rc_lookahead=50 rc=abr mbtree=1 bitrate=2000 ratetol=1.0 qcomp=0.60 qpmin=0 qpmax=69 qpstep=4 ip_ratio=1.40 aq=1:1.00\n",
      "Output #0, mp4, to '/Users/georgye/Documents/repos/ethz/dslab25/training/videos/01_run1_cam_2_1024x1024_15fps_3mbps.mp4':\n",
      "  Metadata:\n",
      "    software        : Lavf59.27.100\n",
      "    encoder         : Lavf61.7.100\n",
      "  Stream #0:0: Video: h264 (avc1 / 0x31637661), yuvj420p(pc, bt470bg/unknown/unknown, progressive), 1024x1024, q=2-31, 2000 kb/s, 15 fps, 15360 tbn\n",
      "      Metadata:\n",
      "        encoder         : Lavc61.19.100 libx264\n",
      "      Side data:\n",
      "        cpb: bitrate max/min/avg: 0/0/2000000 buffer size: 0 vbv_delay: N/A\n",
      "[out#0/mp4 @ 0x149922090] video:30167KiB audio:0KiB subtitle:0KiB other streams:0KiB global headers:0KiB muxing overhead: 0.076285%\n",
      "frame= 1856 fps= 72 q=-1.0 Lsize=   30190KiB time=00:02:03.60 bitrate=2000.9kbits/s dup=0 drop=1854 speed=4.82x    \n",
      "[libx264 @ 0x149922f10] frame I:8     Avg QP:11.70  size: 72885\n",
      "[libx264 @ 0x149922f10] frame P:467   Avg QP:16.23  size: 29034\n",
      "[libx264 @ 0x149922f10] frame B:1381  Avg QP:17.97  size: 12127\n",
      "[libx264 @ 0x149922f10] consecutive B-frames:  0.8%  0.1%  0.0% 99.1%\n",
      "[libx264 @ 0x149922f10] mb I  I16..4: 30.4% 57.2% 12.4%\n",
      "[libx264 @ 0x149922f10] mb P  I16..4:  2.2%  8.5%  0.6%  P16..4: 38.1% 15.7%  8.2%  0.0%  0.0%    skip:26.7%\n",
      "[libx264 @ 0x149922f10] mb B  I16..4:  0.5%  1.7%  0.1%  B16..8: 30.1%  7.7%  1.2%  direct:12.5%  skip:46.3%  L0:54.5% L1:37.0% BI: 8.4%\n",
      "[libx264 @ 0x149922f10] final ratefactor: 19.34\n",
      "[libx264 @ 0x149922f10] 8x8 transform intra:73.3% inter:60.5%\n",
      "[libx264 @ 0x149922f10] direct mvs  spatial:99.4% temporal:0.6%\n",
      "[libx264 @ 0x149922f10] coded y,uvDC,uvAC intra: 65.9% 88.3% 71.9% inter: 22.2% 42.1% 10.0%\n",
      "[libx264 @ 0x149922f10] i16 v,h,dc,p: 21% 11%  4% 64%\n",
      "[libx264 @ 0x149922f10] i8 v,h,dc,ddl,ddr,vr,hd,vl,hu: 12%  9% 14%  7% 13% 14% 11%  9% 10%\n",
      "[libx264 @ 0x149922f10] i4 v,h,dc,ddl,ddr,vr,hd,vl,hu: 14% 11%  7%  6% 17% 15% 12%  8%  9%\n",
      "[libx264 @ 0x149922f10] i8c dc,h,v,p: 54% 17% 15% 13%\n",
      "[libx264 @ 0x149922f10] Weighted P-Frames: Y:0.9% UV:0.6%\n",
      "[libx264 @ 0x149922f10] ref P L0: 36.3%  5.2% 28.8% 13.0% 16.7%  0.1%\n",
      "[libx264 @ 0x149922f10] ref B L0: 49.7% 30.8% 14.1%  5.4%\n",
      "[libx264 @ 0x149922f10] ref B L1: 87.4% 12.6%\n",
      "[libx264 @ 0x149922f10] kb/s:1997.19\n",
      "ffmpeg version 7.1 Copyright (c) 2000-2024 the FFmpeg developers\n",
      "  built with Apple clang version 16.0.0 (clang-1600.0.26.4)\n",
      "  configuration: --prefix=/opt/homebrew/Cellar/ffmpeg/7.1_4 --enable-shared --enable-pthreads --enable-version3 --cc=clang --host-cflags= --host-ldflags='-Wl,-ld_classic' --enable-ffplay --enable-gnutls --enable-gpl --enable-libaom --enable-libaribb24 --enable-libbluray --enable-libdav1d --enable-libharfbuzz --enable-libjxl --enable-libmp3lame --enable-libopus --enable-librav1e --enable-librist --enable-librubberband --enable-libsnappy --enable-libsrt --enable-libssh --enable-libsvtav1 --enable-libtesseract --enable-libtheora --enable-libvidstab --enable-libvmaf --enable-libvorbis --enable-libvpx --enable-libwebp --enable-libx264 --enable-libx265 --enable-libxml2 --enable-libxvid --enable-lzma --enable-libfontconfig --enable-libfreetype --enable-frei0r --enable-libass --enable-libopencore-amrnb --enable-libopencore-amrwb --enable-libopenjpeg --enable-libspeex --enable-libsoxr --enable-libzmq --enable-libzimg --disable-libjack --disable-indev=jack --enable-videotoolbox --enable-audiotoolbox --enable-neon\n",
      "  libavutil      59. 39.100 / 59. 39.100\n",
      "  libavcodec     61. 19.100 / 61. 19.100\n",
      "  libavformat    61.  7.100 / 61.  7.100\n",
      "  libavdevice    61.  3.100 / 61.  3.100\n",
      "  libavfilter    10.  4.100 / 10.  4.100\n",
      "  libswscale      8.  3.100 /  8.  3.100\n",
      "  libswresample   5.  3.100 /  5.  3.100\n",
      "  libpostproc    58.  3.100 / 58.  3.100\n",
      "Input #0, avi, from '/Volumes/T7/Dataset_paper/Vacuum_pump/01/Full_recordings/01_run1_cam_3.avi':\n",
      "  Metadata:\n",
      "    software        : Lavf59.27.100\n",
      "  Duration: 00:02:03.63, start: 0.000000, bitrate: 28842 kb/s\n",
      "  Stream #0:0: Video: mjpeg (Baseline) (MJPG / 0x47504A4D), yuvj420p(pc, bt470bg/unknown/unknown), 1600x1200, 28843 kb/s, 30 fps, 30 tbr, 30 tbn\n",
      "Stream mapping:\n",
      "  Stream #0:0 -> #0:0 (mjpeg (native) -> h264 (libx264))\n",
      "Press [q] to stop, [?] for help\n",
      "[swscaler @ 0x128030000] deprecated pixel format used, make sure you did set range correctly\n",
      "[libx264 @ 0x132f25c70] using cpu capabilities: ARMv8 NEON\n",
      "[libx264 @ 0x132f25c70] profile High, level 3.2, 4:2:0, 8-bit\n",
      "[libx264 @ 0x132f25c70] 264 - core 164 r3108 31e19f9 - H.264/MPEG-4 AVC codec - Copyleft 2003-2023 - http://www.videolan.org/x264.html - options: cabac=1 ref=5 deblock=1:0:0 analyse=0x3:0x113 me=hex subme=8 psy=1 psy_rd=1.00:0.00 mixed_ref=1 me_range=16 chroma_me=1 trellis=2 8x8dct=1 cqm=0 deadzone=21,11 fast_pskip=1 chroma_qp_offset=-2 threads=15 lookahead_threads=2 sliced_threads=0 nr=0 decimate=1 interlaced=0 bluray_compat=0 constrained_intra=0 bframes=3 b_pyramid=2 b_adapt=1 b_bias=0 direct=3 weightb=1 open_gop=0 weightp=2 keyint=250 keyint_min=15 scenecut=40 intra_refresh=0 rc_lookahead=50 rc=abr mbtree=1 bitrate=2000 ratetol=1.0 qcomp=0.60 qpmin=0 qpmax=69 qpstep=4 ip_ratio=1.40 aq=1:1.00\n",
      "Output #0, mp4, to '/Users/georgye/Documents/repos/ethz/dslab25/training/videos/01_run1_cam_3_1024x1024_15fps_3mbps.mp4':\n",
      "  Metadata:\n",
      "    software        : Lavf59.27.100\n",
      "    encoder         : Lavf61.7.100\n",
      "  Stream #0:0: Video: h264 (avc1 / 0x31637661), yuvj420p(pc, bt470bg/unknown/unknown, progressive), 1024x1024, q=2-31, 2000 kb/s, 15 fps, 15360 tbn\n",
      "      Metadata:\n",
      "        encoder         : Lavc61.19.100 libx264\n",
      "      Side data:\n",
      "        cpb: bitrate max/min/avg: 0/0/2000000 buffer size: 0 vbv_delay: N/A\n"
     ]
    },
    {
     "name": "stdout",
     "output_type": "stream",
     "text": [
      "Processing: /Volumes/T7/Dataset_paper/Vacuum_pump/01/Full_recordings/01_run1_cam_3.avi → /Users/georgye/Documents/repos/ethz/dslab25/training/videos/01_run1_cam_3_1024x1024_15fps_3mbps.mp4\n"
     ]
    },
    {
     "name": "stderr",
     "output_type": "stream",
     "text": [
      "[out#0/mp4 @ 0x132f247d0] video:30182KiB audio:0KiB subtitle:0KiB other streams:0KiB global headers:0KiB muxing overhead: 0.076143%\n",
      "frame= 1856 fps= 72 q=-1.0 Lsize=   30205KiB time=00:02:03.60 bitrate=2001.9kbits/s dup=0 drop=1854 speed=4.78x    \n",
      "[libx264 @ 0x132f25c70] frame I:8     Avg QP:11.99  size: 88796\n",
      "[libx264 @ 0x132f25c70] frame P:468   Avg QP:15.74  size: 32013\n",
      "[libx264 @ 0x132f25c70] frame B:1380  Avg QP:18.02  size: 11024\n",
      "[libx264 @ 0x132f25c70] consecutive B-frames:  0.9%  0.0%  0.0% 99.1%\n",
      "[libx264 @ 0x132f25c70] mb I  I16..4: 30.2% 51.6% 18.2%\n",
      "[libx264 @ 0x132f25c70] mb P  I16..4:  1.8%  5.5%  0.7%  P16..4: 37.0% 18.2% 10.2%  0.0%  0.0%    skip:26.6%\n",
      "[libx264 @ 0x132f25c70] mb B  I16..4:  0.4%  0.8%  0.1%  B16..8: 29.2%  7.2%  1.2%  direct:12.0%  skip:49.1%  L0:55.4% L1:35.7% BI: 8.9%\n",
      "[libx264 @ 0x132f25c70] final ratefactor: 19.59\n",
      "[libx264 @ 0x132f25c70] 8x8 transform intra:64.4% inter:54.7%\n",
      "[libx264 @ 0x132f25c70] direct mvs  spatial:99.4% temporal:0.6%\n",
      "[libx264 @ 0x132f25c70] coded y,uvDC,uvAC intra: 59.1% 88.1% 69.3% inter: 20.5% 41.2% 7.9%\n",
      "[libx264 @ 0x132f25c70] i16 v,h,dc,p: 22%  9%  7% 62%\n",
      "[libx264 @ 0x132f25c70] i8 v,h,dc,ddl,ddr,vr,hd,vl,hu: 12% 11% 14%  9%  9%  9% 12% 12% 12%\n",
      "[libx264 @ 0x132f25c70] i4 v,h,dc,ddl,ddr,vr,hd,vl,hu: 12% 12%  7%  7% 13% 11% 14% 10% 12%\n",
      "[libx264 @ 0x132f25c70] i8c dc,h,v,p: 54% 20% 14% 12%\n",
      "[libx264 @ 0x132f25c70] Weighted P-Frames: Y:0.2% UV:0.0%\n",
      "[libx264 @ 0x132f25c70] ref P L0: 32.7%  5.7% 30.6% 12.3% 18.6%  0.0%\n",
      "[libx264 @ 0x132f25c70] ref B L0: 46.1% 33.0% 14.8%  6.1%\n",
      "[libx264 @ 0x132f25c70] ref B L1: 86.6% 13.4%\n",
      "[libx264 @ 0x132f25c70] kb/s:1998.20\n"
     ]
    },
    {
     "name": "stdout",
     "output_type": "stream",
     "text": [
      "Processing: /Volumes/T7/Dataset_paper/Vacuum_pump/01/Full_recordings/01_run2_cam_2.avi → /Users/georgye/Documents/repos/ethz/dslab25/training/videos/01_run2_cam_2_1024x1024_15fps_3mbps.mp4\n"
     ]
    },
    {
     "name": "stderr",
     "output_type": "stream",
     "text": [
      "ffmpeg version 7.1 Copyright (c) 2000-2024 the FFmpeg developers\n",
      "  built with Apple clang version 16.0.0 (clang-1600.0.26.4)\n",
      "  configuration: --prefix=/opt/homebrew/Cellar/ffmpeg/7.1_4 --enable-shared --enable-pthreads --enable-version3 --cc=clang --host-cflags= --host-ldflags='-Wl,-ld_classic' --enable-ffplay --enable-gnutls --enable-gpl --enable-libaom --enable-libaribb24 --enable-libbluray --enable-libdav1d --enable-libharfbuzz --enable-libjxl --enable-libmp3lame --enable-libopus --enable-librav1e --enable-librist --enable-librubberband --enable-libsnappy --enable-libsrt --enable-libssh --enable-libsvtav1 --enable-libtesseract --enable-libtheora --enable-libvidstab --enable-libvmaf --enable-libvorbis --enable-libvpx --enable-libwebp --enable-libx264 --enable-libx265 --enable-libxml2 --enable-libxvid --enable-lzma --enable-libfontconfig --enable-libfreetype --enable-frei0r --enable-libass --enable-libopencore-amrnb --enable-libopencore-amrwb --enable-libopenjpeg --enable-libspeex --enable-libsoxr --enable-libzmq --enable-libzimg --disable-libjack --disable-indev=jack --enable-videotoolbox --enable-audiotoolbox --enable-neon\n",
      "  libavutil      59. 39.100 / 59. 39.100\n",
      "  libavcodec     61. 19.100 / 61. 19.100\n",
      "  libavformat    61.  7.100 / 61.  7.100\n",
      "  libavdevice    61.  3.100 / 61.  3.100\n",
      "  libavfilter    10.  4.100 / 10.  4.100\n",
      "  libswscale      8.  3.100 /  8.  3.100\n",
      "  libswresample   5.  3.100 /  5.  3.100\n",
      "  libpostproc    58.  3.100 / 58.  3.100\n",
      "Input #0, avi, from '/Volumes/T7/Dataset_paper/Vacuum_pump/01/Full_recordings/01_run2_cam_2.avi':\n",
      "  Metadata:\n",
      "    software        : Lavf59.27.100\n",
      "  Duration: 00:02:02.10, start: 0.000000, bitrate: 26236 kb/s\n",
      "  Stream #0:0: Video: mjpeg (Baseline) (MJPG / 0x47504A4D), yuvj420p(pc, bt470bg/unknown/unknown), 1600x1200, 26236 kb/s, 30 fps, 30 tbr, 30 tbn\n",
      "Stream mapping:\n",
      "  Stream #0:0 -> #0:0 (mjpeg (native) -> h264 (libx264))\n",
      "Press [q] to stop, [?] for help\n",
      "[swscaler @ 0x1481f8000] deprecated pixel format used, make sure you did set range correctly\n",
      "[libx264 @ 0x1523228d0] using cpu capabilities: ARMv8 NEON\n",
      "[libx264 @ 0x1523228d0] profile High, level 3.2, 4:2:0, 8-bit\n",
      "[libx264 @ 0x1523228d0] 264 - core 164 r3108 31e19f9 - H.264/MPEG-4 AVC codec - Copyleft 2003-2023 - http://www.videolan.org/x264.html - options: cabac=1 ref=5 deblock=1:0:0 analyse=0x3:0x113 me=hex subme=8 psy=1 psy_rd=1.00:0.00 mixed_ref=1 me_range=16 chroma_me=1 trellis=2 8x8dct=1 cqm=0 deadzone=21,11 fast_pskip=1 chroma_qp_offset=-2 threads=15 lookahead_threads=2 sliced_threads=0 nr=0 decimate=1 interlaced=0 bluray_compat=0 constrained_intra=0 bframes=3 b_pyramid=2 b_adapt=1 b_bias=0 direct=3 weightb=1 open_gop=0 weightp=2 keyint=250 keyint_min=15 scenecut=40 intra_refresh=0 rc_lookahead=50 rc=abr mbtree=1 bitrate=2000 ratetol=1.0 qcomp=0.60 qpmin=0 qpmax=69 qpstep=4 ip_ratio=1.40 aq=1:1.00\n",
      "Output #0, mp4, to '/Users/georgye/Documents/repos/ethz/dslab25/training/videos/01_run2_cam_2_1024x1024_15fps_3mbps.mp4':\n",
      "  Metadata:\n",
      "    software        : Lavf59.27.100\n",
      "    encoder         : Lavf61.7.100\n",
      "  Stream #0:0: Video: h264 (avc1 / 0x31637661), yuvj420p(pc, bt470bg/unknown/unknown, progressive), 1024x1024, q=2-31, 2000 kb/s, 15 fps, 15360 tbn\n",
      "      Metadata:\n",
      "        encoder         : Lavc61.19.100 libx264\n",
      "      Side data:\n",
      "        cpb: bitrate max/min/avg: 0/0/2000000 buffer size: 0 vbv_delay: N/A\n",
      "[out#0/mp4 @ 0x152321a10] video:29765KiB audio:0KiB subtitle:0KiB other streams:0KiB global headers:0KiB muxing overhead: 0.076186%\n",
      "frame= 1833 fps= 77 q=-1.0 Lsize=   29788KiB time=00:02:02.06 bitrate=1999.1kbits/s dup=0 drop=1831 speed= 5.1x    \n",
      "[libx264 @ 0x1523228d0] frame I:8     Avg QP:11.88  size: 73374\n",
      "[libx264 @ 0x1523228d0] frame P:462   Avg QP:16.32  size: 29215\n",
      "[libx264 @ 0x1523228d0] frame B:1363  Avg QP:18.04  size: 12028\n",
      "[libx264 @ 0x1523228d0] consecutive B-frames:  0.8%  0.2%  0.2% 98.9%\n",
      "[libx264 @ 0x1523228d0] mb I  I16..4: 30.1% 57.0% 12.9%\n",
      "[libx264 @ 0x1523228d0] mb P  I16..4:  2.0%  8.7%  0.7%  P16..4: 38.0% 15.5%  8.3%  0.0%  0.0%    skip:26.8%\n",
      "[libx264 @ 0x1523228d0] mb B  I16..4:  0.5%  1.7%  0.1%  B16..8: 30.2%  7.7%  1.2%  direct:12.1%  skip:46.5%  L0:54.7% L1:36.9% BI: 8.4%\n",
      "[libx264 @ 0x1523228d0] final ratefactor: 19.38\n",
      "[libx264 @ 0x1523228d0] 8x8 transform intra:73.7% inter:61.1%\n",
      "[libx264 @ 0x1523228d0] direct mvs  spatial:99.4% temporal:0.6%\n",
      "[libx264 @ 0x1523228d0] coded y,uvDC,uvAC intra: 66.1% 88.7% 71.6% inter: 21.9% 41.9% 9.8%\n",
      "[libx264 @ 0x1523228d0] i16 v,h,dc,p: 19% 11%  4% 66%\n",
      "[libx264 @ 0x1523228d0] i8 v,h,dc,ddl,ddr,vr,hd,vl,hu: 12%  9% 14%  7% 14% 14% 11% 10% 10%\n",
      "[libx264 @ 0x1523228d0] i4 v,h,dc,ddl,ddr,vr,hd,vl,hu: 14% 11%  7%  7% 18% 14% 12%  8%  9%\n",
      "[libx264 @ 0x1523228d0] i8c dc,h,v,p: 53% 17% 16% 14%\n",
      "[libx264 @ 0x1523228d0] Weighted P-Frames: Y:0.2% UV:0.2%\n",
      "[libx264 @ 0x1523228d0] ref P L0: 36.2%  5.3% 28.5% 13.0% 16.9%  0.0%\n",
      "[libx264 @ 0x1523228d0] ref B L0: 49.3% 31.0% 14.1%  5.6%\n",
      "[libx264 @ 0x1523228d0] ref B L1: 87.3% 12.7%\n",
      "[libx264 @ 0x1523228d0] kb/s:1995.32\n",
      "ffmpeg version 7.1 Copyright (c) 2000-2024 the FFmpeg developers\n",
      "  built with Apple clang version 16.0.0 (clang-1600.0.26.4)\n",
      "  configuration: --prefix=/opt/homebrew/Cellar/ffmpeg/7.1_4 --enable-shared --enable-pthreads --enable-version3 --cc=clang --host-cflags= --host-ldflags='-Wl,-ld_classic' --enable-ffplay --enable-gnutls --enable-gpl --enable-libaom --enable-libaribb24 --enable-libbluray --enable-libdav1d --enable-libharfbuzz --enable-libjxl --enable-libmp3lame --enable-libopus --enable-librav1e --enable-librist --enable-librubberband --enable-libsnappy --enable-libsrt --enable-libssh --enable-libsvtav1 --enable-libtesseract --enable-libtheora --enable-libvidstab --enable-libvmaf --enable-libvorbis --enable-libvpx --enable-libwebp --enable-libx264 --enable-libx265 --enable-libxml2 --enable-libxvid --enable-lzma --enable-libfontconfig --enable-libfreetype --enable-frei0r --enable-libass --enable-libopencore-amrnb --enable-libopencore-amrwb --enable-libopenjpeg --enable-libspeex --enable-libsoxr --enable-libzmq --enable-libzimg --disable-libjack --disable-indev=jack --enable-videotoolbox --enable-audiotoolbox --enable-neon\n",
      "  libavutil      59. 39.100 / 59. 39.100\n",
      "  libavcodec     61. 19.100 / 61. 19.100\n",
      "  libavformat    61.  7.100 / 61.  7.100\n",
      "  libavdevice    61.  3.100 / 61.  3.100\n",
      "  libavfilter    10.  4.100 / 10.  4.100\n",
      "  libswscale      8.  3.100 /  8.  3.100\n",
      "  libswresample   5.  3.100 /  5.  3.100\n",
      "  libpostproc    58.  3.100 / 58.  3.100\n",
      "Input #0, avi, from '/Volumes/T7/Dataset_paper/Vacuum_pump/01/Full_recordings/01_run2_cam_3.avi':\n",
      "  Metadata:\n",
      "    software        : Lavf59.27.100\n",
      "  Duration: 00:02:02.10, start: 0.000000, bitrate: 28811 kb/s\n",
      "  Stream #0:0: Video: mjpeg (Baseline) (MJPG / 0x47504A4D), yuvj420p(pc, bt470bg/unknown/unknown), 1600x1200, 28812 kb/s, 30 fps, 30 tbr, 30 tbn\n",
      "Stream mapping:\n",
      "  Stream #0:0 -> #0:0 (mjpeg (native) -> h264 (libx264))\n",
      "Press [q] to stop, [?] for help\n",
      "[swscaler @ 0x138078000] deprecated pixel format used, make sure you did set range correctly\n",
      "[libx264 @ 0x157e12e50] using cpu capabilities: ARMv8 NEON\n",
      "[libx264 @ 0x157e12e50] profile High, level 3.2, 4:2:0, 8-bit\n",
      "[libx264 @ 0x157e12e50] 264 - core 164 r3108 31e19f9 - H.264/MPEG-4 AVC codec - Copyleft 2003-2023 - http://www.videolan.org/x264.html - options: cabac=1 ref=5 deblock=1:0:0 analyse=0x3:0x113 me=hex subme=8 psy=1 psy_rd=1.00:0.00 mixed_ref=1 me_range=16 chroma_me=1 trellis=2 8x8dct=1 cqm=0 deadzone=21,11 fast_pskip=1 chroma_qp_offset=-2 threads=15 lookahead_threads=2 sliced_threads=0 nr=0 decimate=1 interlaced=0 bluray_compat=0 constrained_intra=0 bframes=3 b_pyramid=2 b_adapt=1 b_bias=0 direct=3 weightb=1 open_gop=0 weightp=2 keyint=250 keyint_min=15 scenecut=40 intra_refresh=0 rc_lookahead=50 rc=abr mbtree=1 bitrate=2000 ratetol=1.0 qcomp=0.60 qpmin=0 qpmax=69 qpstep=4 ip_ratio=1.40 aq=1:1.00\n",
      "Output #0, mp4, to '/Users/georgye/Documents/repos/ethz/dslab25/training/videos/01_run2_cam_3_1024x1024_15fps_3mbps.mp4':\n",
      "  Metadata:\n",
      "    software        : Lavf59.27.100\n",
      "    encoder         : Lavf61.7.100\n",
      "  Stream #0:0: Video: h264 (avc1 / 0x31637661), yuvj420p(pc, bt470bg/unknown/unknown, progressive), 1024x1024, q=2-31, 2000 kb/s, 15 fps, 15360 tbn\n",
      "      Metadata:\n",
      "        encoder         : Lavc61.19.100 libx264\n",
      "      Side data:\n",
      "        cpb: bitrate max/min/avg: 0/0/2000000 buffer size: 0 vbv_delay: N/A\n"
     ]
    },
    {
     "name": "stdout",
     "output_type": "stream",
     "text": [
      "Processing: /Volumes/T7/Dataset_paper/Vacuum_pump/01/Full_recordings/01_run2_cam_3.avi → /Users/georgye/Documents/repos/ethz/dslab25/training/videos/01_run2_cam_3_1024x1024_15fps_3mbps.mp4\n"
     ]
    },
    {
     "name": "stderr",
     "output_type": "stream",
     "text": [
      "[out#0/mp4 @ 0x157e119e0] video:29796KiB audio:0KiB subtitle:0KiB other streams:0KiB global headers:0KiB muxing overhead: 0.076146%\n",
      "frame= 1833 fps= 78 q=-1.0 Lsize=   29819KiB time=00:02:02.06 bitrate=2001.2kbits/s dup=0 drop=1831 speed=5.16x    \n",
      "[libx264 @ 0x157e12e50] frame I:8     Avg QP:11.97  size: 88304\n",
      "[libx264 @ 0x157e12e50] frame P:462   Avg QP:15.65  size: 32067\n",
      "[libx264 @ 0x157e12e50] frame B:1363  Avg QP:17.87  size: 10997\n",
      "[libx264 @ 0x157e12e50] consecutive B-frames:  0.8%  0.1%  0.0% 99.1%\n",
      "[libx264 @ 0x157e12e50] mb I  I16..4: 30.4% 50.7% 18.9%\n",
      "[libx264 @ 0x157e12e50] mb P  I16..4:  1.9%  5.6%  0.7%  P16..4: 37.0% 18.1% 10.1%  0.0%  0.0%    skip:26.6%\n",
      "[libx264 @ 0x157e12e50] mb B  I16..4:  0.4%  0.8%  0.1%  B16..8: 29.0%  7.2%  1.2%  direct:12.1%  skip:49.1%  L0:55.4% L1:35.8% BI: 8.9%\n",
      "[libx264 @ 0x157e12e50] final ratefactor: 19.60\n",
      "[libx264 @ 0x157e12e50] 8x8 transform intra:64.3% inter:54.8%\n",
      "[libx264 @ 0x157e12e50] direct mvs  spatial:99.4% temporal:0.6%\n",
      "[libx264 @ 0x157e12e50] coded y,uvDC,uvAC intra: 58.5% 87.4% 67.9% inter: 20.5% 41.1% 7.9%\n",
      "[libx264 @ 0x157e12e50] i16 v,h,dc,p: 24%  9%  8% 59%\n",
      "[libx264 @ 0x157e12e50] i8 v,h,dc,ddl,ddr,vr,hd,vl,hu: 12% 12% 14%  8%  9%  9% 12% 11% 12%\n",
      "[libx264 @ 0x157e12e50] i4 v,h,dc,ddl,ddr,vr,hd,vl,hu: 12% 13%  7%  7% 13% 11% 14% 10% 11%\n",
      "[libx264 @ 0x157e12e50] i8c dc,h,v,p: 54% 21% 14% 11%\n",
      "[libx264 @ 0x157e12e50] Weighted P-Frames: Y:0.4% UV:0.4%\n",
      "[libx264 @ 0x157e12e50] ref P L0: 32.8%  5.8% 30.3% 12.4% 18.7%  0.0%\n",
      "[libx264 @ 0x157e12e50] ref B L0: 45.8% 33.1% 14.9%  6.2%\n",
      "[libx264 @ 0x157e12e50] ref B L1: 86.7% 13.3%\n",
      "[libx264 @ 0x157e12e50] kb/s:1997.40\n",
      "ffmpeg version 7.1 Copyright (c) 2000-2024 the FFmpeg developers\n",
      "  built with Apple clang version 16.0.0 (clang-1600.0.26.4)\n",
      "  configuration: --prefix=/opt/homebrew/Cellar/ffmpeg/7.1_4 --enable-shared --enable-pthreads --enable-version3 --cc=clang --host-cflags= --host-ldflags='-Wl,-ld_classic' --enable-ffplay --enable-gnutls --enable-gpl --enable-libaom --enable-libaribb24 --enable-libbluray --enable-libdav1d --enable-libharfbuzz --enable-libjxl --enable-libmp3lame --enable-libopus --enable-librav1e --enable-librist --enable-librubberband --enable-libsnappy --enable-libsrt --enable-libssh --enable-libsvtav1 --enable-libtesseract --enable-libtheora --enable-libvidstab --enable-libvmaf --enable-libvorbis --enable-libvpx --enable-libwebp --enable-libx264 --enable-libx265 --enable-libxml2 --enable-libxvid --enable-lzma --enable-libfontconfig --enable-libfreetype --enable-frei0r --enable-libass --enable-libopencore-amrnb --enable-libopencore-amrwb --enable-libopenjpeg --enable-libspeex --enable-libsoxr --enable-libzmq --enable-libzimg --disable-libjack --disable-indev=jack --enable-videotoolbox --enable-audiotoolbox --enable-neon\n",
      "  libavutil      59. 39.100 / 59. 39.100\n",
      "  libavcodec     61. 19.100 / 61. 19.100\n",
      "  libavformat    61.  7.100 / 61.  7.100\n",
      "  libavdevice    61.  3.100 / 61.  3.100\n",
      "  libavfilter    10.  4.100 / 10.  4.100\n",
      "  libswscale      8.  3.100 /  8.  3.100\n",
      "  libswresample   5.  3.100 /  5.  3.100\n",
      "  libpostproc    58.  3.100 / 58.  3.100\n",
      "Input #0, avi, from '/Volumes/T7/Dataset_paper/Vacuum_pump/01/Full_recordings/01_run3_cam_2.avi':\n",
      "  Metadata:\n",
      "    software        : Lavf59.27.100\n",
      "  Duration: 00:02:02.07, start: 0.000000, bitrate: 26193 kb/s\n",
      "  Stream #0:0: Video: mjpeg (Baseline) (MJPG / 0x47504A4D), yuvj420p(pc, bt470bg/unknown/unknown), 1600x1200, 26192 kb/s, 30 fps, 30 tbr, 30 tbn\n",
      "Stream mapping:\n",
      "  Stream #0:0 -> #0:0 (mjpeg (native) -> h264 (libx264))\n",
      "Press [q] to stop, [?] for help\n",
      "[swscaler @ 0x140070000] deprecated pixel format used, make sure you did set range correctly\n",
      "[libx264 @ 0x14b725590] using cpu capabilities: ARMv8 NEON\n",
      "[libx264 @ 0x14b725590] profile High, level 3.2, 4:2:0, 8-bit\n",
      "[libx264 @ 0x14b725590] 264 - core 164 r3108 31e19f9 - H.264/MPEG-4 AVC codec - Copyleft 2003-2023 - http://www.videolan.org/x264.html - options: cabac=1 ref=5 deblock=1:0:0 analyse=0x3:0x113 me=hex subme=8 psy=1 psy_rd=1.00:0.00 mixed_ref=1 me_range=16 chroma_me=1 trellis=2 8x8dct=1 cqm=0 deadzone=21,11 fast_pskip=1 chroma_qp_offset=-2 threads=15 lookahead_threads=2 sliced_threads=0 nr=0 decimate=1 interlaced=0 bluray_compat=0 constrained_intra=0 bframes=3 b_pyramid=2 b_adapt=1 b_bias=0 direct=3 weightb=1 open_gop=0 weightp=2 keyint=250 keyint_min=15 scenecut=40 intra_refresh=0 rc_lookahead=50 rc=abr mbtree=1 bitrate=2000 ratetol=1.0 qcomp=0.60 qpmin=0 qpmax=69 qpstep=4 ip_ratio=1.40 aq=1:1.00\n",
      "Output #0, mp4, to '/Users/georgye/Documents/repos/ethz/dslab25/training/videos/01_run3_cam_2_1024x1024_15fps_3mbps.mp4':\n",
      "  Metadata:\n",
      "    software        : Lavf59.27.100\n",
      "    encoder         : Lavf61.7.100\n",
      "  Stream #0:0: Video: h264 (avc1 / 0x31637661), yuvj420p(pc, bt470bg/unknown/unknown, progressive), 1024x1024, q=2-31, 2000 kb/s, 15 fps, 15360 tbn\n",
      "      Metadata:\n",
      "        encoder         : Lavc61.19.100 libx264\n",
      "      Side data:\n",
      "        cpb: bitrate max/min/avg: 0/0/2000000 buffer size: 0 vbv_delay: N/A\n"
     ]
    },
    {
     "name": "stdout",
     "output_type": "stream",
     "text": [
      "Processing: /Volumes/T7/Dataset_paper/Vacuum_pump/01/Full_recordings/01_run3_cam_2.avi → /Users/georgye/Documents/repos/ethz/dslab25/training/videos/01_run3_cam_2_1024x1024_15fps_3mbps.mp4\n"
     ]
    },
    {
     "name": "stderr",
     "output_type": "stream",
     "text": [
      "[out#0/mp4 @ 0x14b7246e0] video:29734KiB audio:0KiB subtitle:0KiB other streams:0KiB global headers:0KiB muxing overhead: 0.076332%\n",
      "frame= 1833 fps= 84 q=-1.0 Lsize=   29757KiB time=00:02:02.06 bitrate=1997.0kbits/s dup=0 drop=1829 speed=5.61x    \n",
      "[libx264 @ 0x14b725590] frame I:8     Avg QP:11.93  size: 73847\n",
      "[libx264 @ 0x14b725590] frame P:463   Avg QP:16.27  size: 29034\n",
      "[libx264 @ 0x14b725590] frame B:1362  Avg QP:18.06  size: 12051\n",
      "[libx264 @ 0x14b725590] consecutive B-frames:  0.9%  0.1%  0.2% 98.9%\n",
      "[libx264 @ 0x14b725590] mb I  I16..4: 30.0% 57.2% 12.8%\n",
      "[libx264 @ 0x14b725590] mb P  I16..4:  2.1%  9.0%  0.7%  P16..4: 37.8% 15.3%  8.2%  0.0%  0.0%    skip:26.8%\n",
      "[libx264 @ 0x14b725590] mb B  I16..4:  0.5%  1.8%  0.1%  B16..8: 30.3%  7.8%  1.2%  direct:11.9%  skip:46.5%  L0:55.0% L1:36.8% BI: 8.2%\n",
      "[libx264 @ 0x14b725590] final ratefactor: 19.39\n",
      "[libx264 @ 0x14b725590] 8x8 transform intra:74.1% inter:61.7%\n",
      "[libx264 @ 0x14b725590] direct mvs  spatial:99.4% temporal:0.6%\n",
      "[libx264 @ 0x14b725590] coded y,uvDC,uvAC intra: 66.0% 88.4% 70.7% inter: 21.9% 41.5% 9.5%\n",
      "[libx264 @ 0x14b725590] i16 v,h,dc,p: 19% 11%  4% 66%\n",
      "[libx264 @ 0x14b725590] i8 v,h,dc,ddl,ddr,vr,hd,vl,hu: 12%  9% 13%  7% 14% 14% 11%  9% 10%\n",
      "[libx264 @ 0x14b725590] i4 v,h,dc,ddl,ddr,vr,hd,vl,hu: 14% 11%  7%  6% 17% 15% 12%  8%  9%\n",
      "[libx264 @ 0x14b725590] i8c dc,h,v,p: 53% 17% 16% 14%\n",
      "[libx264 @ 0x14b725590] Weighted P-Frames: Y:0.0% UV:0.0%\n",
      "[libx264 @ 0x14b725590] ref P L0: 35.8%  5.2% 29.1% 13.0% 16.9%  0.0%\n",
      "[libx264 @ 0x14b725590] ref B L0: 49.3% 31.3% 14.0%  5.5%\n",
      "[libx264 @ 0x14b725590] ref B L1: 87.0% 13.0%\n",
      "[libx264 @ 0x14b725590] kb/s:1993.24\n",
      "ffmpeg version 7.1 Copyright (c) 2000-2024 the FFmpeg developers\n",
      "  built with Apple clang version 16.0.0 (clang-1600.0.26.4)\n",
      "  configuration: --prefix=/opt/homebrew/Cellar/ffmpeg/7.1_4 --enable-shared --enable-pthreads --enable-version3 --cc=clang --host-cflags= --host-ldflags='-Wl,-ld_classic' --enable-ffplay --enable-gnutls --enable-gpl --enable-libaom --enable-libaribb24 --enable-libbluray --enable-libdav1d --enable-libharfbuzz --enable-libjxl --enable-libmp3lame --enable-libopus --enable-librav1e --enable-librist --enable-librubberband --enable-libsnappy --enable-libsrt --enable-libssh --enable-libsvtav1 --enable-libtesseract --enable-libtheora --enable-libvidstab --enable-libvmaf --enable-libvorbis --enable-libvpx --enable-libwebp --enable-libx264 --enable-libx265 --enable-libxml2 --enable-libxvid --enable-lzma --enable-libfontconfig --enable-libfreetype --enable-frei0r --enable-libass --enable-libopencore-amrnb --enable-libopencore-amrwb --enable-libopenjpeg --enable-libspeex --enable-libsoxr --enable-libzmq --enable-libzimg --disable-libjack --disable-indev=jack --enable-videotoolbox --enable-audiotoolbox --enable-neon\n",
      "  libavutil      59. 39.100 / 59. 39.100\n",
      "  libavcodec     61. 19.100 / 61. 19.100\n",
      "  libavformat    61.  7.100 / 61.  7.100\n",
      "  libavdevice    61.  3.100 / 61.  3.100\n",
      "  libavfilter    10.  4.100 / 10.  4.100\n",
      "  libswscale      8.  3.100 /  8.  3.100\n",
      "  libswresample   5.  3.100 /  5.  3.100\n",
      "  libpostproc    58.  3.100 / 58.  3.100\n",
      "Input #0, avi, from '/Volumes/T7/Dataset_paper/Vacuum_pump/01/Full_recordings/01_run3_cam_3.avi':\n",
      "  Metadata:\n",
      "    software        : Lavf59.27.100\n",
      "  Duration: 00:02:02.07, start: 0.000000, bitrate: 28959 kb/s\n",
      "  Stream #0:0: Video: mjpeg (Baseline) (MJPG / 0x47504A4D), yuvj420p(pc, bt470bg/unknown/unknown), 1600x1200, 28959 kb/s, 30 fps, 30 tbr, 30 tbn\n",
      "Stream mapping:\n",
      "  Stream #0:0 -> #0:0 (mjpeg (native) -> h264 (libx264))\n",
      "Press [q] to stop, [?] for help\n",
      "[swscaler @ 0x138018000] deprecated pixel format used, make sure you did set range correctly\n",
      "[libx264 @ 0x15a730470] using cpu capabilities: ARMv8 NEON\n",
      "[libx264 @ 0x15a730470] profile High, level 3.2, 4:2:0, 8-bit\n",
      "[libx264 @ 0x15a730470] 264 - core 164 r3108 31e19f9 - H.264/MPEG-4 AVC codec - Copyleft 2003-2023 - http://www.videolan.org/x264.html - options: cabac=1 ref=5 deblock=1:0:0 analyse=0x3:0x113 me=hex subme=8 psy=1 psy_rd=1.00:0.00 mixed_ref=1 me_range=16 chroma_me=1 trellis=2 8x8dct=1 cqm=0 deadzone=21,11 fast_pskip=1 chroma_qp_offset=-2 threads=15 lookahead_threads=2 sliced_threads=0 nr=0 decimate=1 interlaced=0 bluray_compat=0 constrained_intra=0 bframes=3 b_pyramid=2 b_adapt=1 b_bias=0 direct=3 weightb=1 open_gop=0 weightp=2 keyint=250 keyint_min=15 scenecut=40 intra_refresh=0 rc_lookahead=50 rc=abr mbtree=1 bitrate=2000 ratetol=1.0 qcomp=0.60 qpmin=0 qpmax=69 qpstep=4 ip_ratio=1.40 aq=1:1.00\n",
      "Output #0, mp4, to '/Users/georgye/Documents/repos/ethz/dslab25/training/videos/01_run3_cam_3_1024x1024_15fps_3mbps.mp4':\n",
      "  Metadata:\n",
      "    software        : Lavf59.27.100\n",
      "    encoder         : Lavf61.7.100\n",
      "  Stream #0:0: Video: h264 (avc1 / 0x31637661), yuvj420p(pc, bt470bg/unknown/unknown, progressive), 1024x1024, q=2-31, 2000 kb/s, 15 fps, 15360 tbn\n",
      "      Metadata:\n",
      "        encoder         : Lavc61.19.100 libx264\n",
      "      Side data:\n",
      "        cpb: bitrate max/min/avg: 0/0/2000000 buffer size: 0 vbv_delay: N/A\n"
     ]
    },
    {
     "name": "stdout",
     "output_type": "stream",
     "text": [
      "Processing: /Volumes/T7/Dataset_paper/Vacuum_pump/01/Full_recordings/01_run3_cam_3.avi → /Users/georgye/Documents/repos/ethz/dslab25/training/videos/01_run3_cam_3_1024x1024_15fps_3mbps.mp4\n"
     ]
    },
    {
     "name": "stderr",
     "output_type": "stream",
     "text": [
      "frame= 1795 fps= 81 q=23.0 size=   29184KiB time=00:01:59.53 bitrate=2000.1kbits/s dup=0 drop=1829 speed=5.39x    \r"
     ]
    },
    {
     "name": "stdout",
     "output_type": "stream",
     "text": [
      "✅ All videos processed (1024x1024, 15fps, 3Mbps) and saved in ./training/videos/\n"
     ]
    },
    {
     "name": "stderr",
     "output_type": "stream",
     "text": [
      "[out#0/mp4 @ 0x15a72f630] video:29787KiB audio:0KiB subtitle:0KiB other streams:0KiB global headers:0KiB muxing overhead: 0.076327%\n",
      "frame= 1833 fps= 81 q=-1.0 Lsize=   29810KiB time=00:02:02.06 bitrate=2000.5kbits/s dup=0 drop=1829 speed=5.39x    \n",
      "[libx264 @ 0x15a730470] frame I:8     Avg QP:11.99  size: 87637\n",
      "[libx264 @ 0x15a730470] frame P:462   Avg QP:15.72  size: 32020\n",
      "[libx264 @ 0x15a730470] frame B:1363  Avg QP:17.99  size: 11010\n",
      "[libx264 @ 0x15a730470] consecutive B-frames:  0.8%  0.1%  0.0% 99.1%\n",
      "[libx264 @ 0x15a730470] mb I  I16..4: 30.1% 51.8% 18.2%\n",
      "[libx264 @ 0x15a730470] mb P  I16..4:  1.9%  5.7%  0.7%  P16..4: 36.9% 18.0% 10.2%  0.0%  0.0%    skip:26.6%\n",
      "[libx264 @ 0x15a730470] mb B  I16..4:  0.4%  0.8%  0.1%  B16..8: 29.2%  7.2%  1.2%  direct:11.9%  skip:49.0%  L0:55.6% L1:35.5% BI: 8.9%\n",
      "[libx264 @ 0x15a730470] final ratefactor: 19.61\n",
      "[libx264 @ 0x15a730470] 8x8 transform intra:64.8% inter:54.9%\n",
      "[libx264 @ 0x15a730470] direct mvs  spatial:99.4% temporal:0.6%\n",
      "[libx264 @ 0x15a730470] coded y,uvDC,uvAC intra: 58.9% 87.4% 67.5% inter: 20.4% 40.9% 7.8%\n",
      "[libx264 @ 0x15a730470] i16 v,h,dc,p: 23%  9%  8% 60%\n",
      "[libx264 @ 0x15a730470] i8 v,h,dc,ddl,ddr,vr,hd,vl,hu: 11% 12% 14%  8%  9%  9% 12% 12% 12%\n",
      "[libx264 @ 0x15a730470] i4 v,h,dc,ddl,ddr,vr,hd,vl,hu: 12% 13%  7%  7% 13% 11% 14% 10% 11%\n",
      "[libx264 @ 0x15a730470] i8c dc,h,v,p: 53% 21% 14% 12%\n",
      "[libx264 @ 0x15a730470] Weighted P-Frames: Y:0.0% UV:0.0%\n",
      "[libx264 @ 0x15a730470] ref P L0: 32.5%  5.6% 30.4% 12.6% 18.9%\n",
      "[libx264 @ 0x15a730470] ref B L0: 45.4% 33.3% 15.0%  6.3%\n",
      "[libx264 @ 0x15a730470] ref B L1: 86.4% 13.6%\n",
      "[libx264 @ 0x15a730470] kb/s:1996.79\n"
     ]
    }
   ],
   "source": [
    "import os\n",
    "import subprocess\n",
    "from pathlib import Path\n",
    "\n",
    "# List of full input video paths\n",
    "video_files = [\n",
    "\t\"/Volumes/T7/Dataset_paper/Vacuum_pump/01/Full_recordings/01_run1_cam_2.avi\",\n",
    "\t\"/Volumes/T7/Dataset_paper/Vacuum_pump/01/Full_recordings/01_run1_cam_3.avi\",\n",
    "\t\"/Volumes/T7/Dataset_paper/Vacuum_pump/01/Full_recordings/01_run2_cam_2.avi\",\n",
    "\t\"/Volumes/T7/Dataset_paper/Vacuum_pump/01/Full_recordings/01_run2_cam_3.avi\",\n",
    "\t\"/Volumes/T7/Dataset_paper/Vacuum_pump/01/Full_recordings/01_run3_cam_2.avi\",\n",
    "\t\"/Volumes/T7/Dataset_paper/Vacuum_pump/01/Full_recordings/01_run3_cam_3.avi\"\n",
    "]\n",
    "\n",
    "# Get the directory of the running notebook\n",
    "notebook_dir = Path().resolve()\n",
    "output_dir = notebook_dir / \"training\" / \"videos\"\n",
    "\n",
    "# Create output directory if it doesn't exist\n",
    "output_dir.mkdir(parents=True, exist_ok=True)\n",
    "\n",
    "# Output filename suffix\n",
    "output_suffix = \"_1024x1024_15fps_3mbps\"\n",
    "\n",
    "for video in video_files:\n",
    "\tvideo_path = Path(video)\n",
    "\tinput_name = video_path.stem  # filename without extension\n",
    "\toutput_file = output_dir / f\"{input_name}{output_suffix}.mp4\"\n",
    "\n",
    "\tcommand = [\n",
    "\t\t\"ffmpeg\",\n",
    "\t\t\"-i\", str(video_path),\n",
    "\t\t\"-vf\", \"scale=w=1024:h=1024:force_original_aspect_ratio=decrease,pad=1024:1024:(ow-iw)/2:(oh-ih)/2:black\",\n",
    "\t\t\"-r\", \"15\",\t\t\t\t # Reduce FPS to 15\n",
    "\t\t\"-c:v\", \"libx264\",\t\t \n",
    "\t\t\"-b:v\", \"2M\",\t\t\t   # Set video bitrate to 2 Mbps\n",
    "\t\t\"-preset\", \"slow\",\t\t \n",
    "\t\t\"-y\",\t\t\t\t\t   \n",
    "\t\tstr(output_file)\n",
    "\t]\n",
    "\n",
    "\tprint(f\"Processing: {video_path} → {output_file}\")\n",
    "\tsubprocess.run(command, check=True)\n",
    "\n",
    "print(\"✅ All videos processed (1024x1024, 15fps, 3Mbps) and saved in ./training/videos/\")"
   ]
  }
 ],
 "metadata": {
  "kernelspec": {
   "display_name": "dslab",
   "language": "python",
   "name": "python3"
  },
  "language_info": {
   "codemirror_mode": {
    "name": "ipython",
    "version": 3
   },
   "file_extension": ".py",
   "mimetype": "text/x-python",
   "name": "python",
   "nbconvert_exporter": "python",
   "pygments_lexer": "ipython3",
   "version": "3.9.10"
  }
 },
 "nbformat": 4,
 "nbformat_minor": 2
}
